<svg xmlns="http://www.w3.org/2000/svg" version="1.1" xmlns:xlink="http://www.w3.org/1999/xlink" xmlns:svgjs="http://svgjs.com/svgjs" width="100%" height="100%" viewBox="0 0 1000 600"><rect width="1000" height="1000" x="0" y="0" fill="#00214d"/><g><rect width="333.3333333333333" height="333.3333333333333" rx="13.333333333333334" ry="13.333333333333334" y="173.3433147215843" fill="#10bcf9" transform="matrix(0.8271512394344354,0,0,0.8271512394344354,0,18.760325755417767)" x="151.12109375"/><path d="M254.75708048111466 412.38135662270275L188.93010698854258 412.38135662270275L188.93010698854258 272.8415954808443L251.54123428245458 272.8415954808443L251.54123428245458 288.36154887437766L207.05070122099232 288.36154887437766L207.05070122099232 331.64963509634094L247.318688404214 331.64963509634094L247.318688404214 346.75013029004907L207.05070122099232 346.75013029004907L207.05070122099232 396.8893671091578L254.75708048111466 396.8893671091578L254.75708048111466 412.38135662270275ZM328.2461570904942 307.488842786408L325.2260580517526 322.39359082019763Q318.79436565443245 319.56923894137446 310.7407682177881 319.56923894137446L310.7407682177881 319.56923894137446Q303.2744122608991 319.56923894137446 296.84271986357896 322.16987978029084L296.84271986357896 322.16987978029084L296.84271986357896 412.38135662270275L279.5330781507913 412.38135662270275L279.5330781507913 311.3198943448117Q285.3775290683561 308.4955424659885 292.9277766652102 306.56603474679247Q300.47802426206425 304.66449090758476 309.53832137828914 304.66449090758476L309.53832137828914 304.66449090758476Q314.3481087362851 304.66449090758476 319.18585997426936 305.27969626732846Q324.0236112122536 305.86693774708374 328.2461570904942 307.488842786408L328.2461570904942 307.488842786408ZM362.89340439605786 306.67789026674586L362.89340439605786 412.38135662270275L345.55579880328185 412.38135662270275L345.55579880328185 306.67789026674586L362.89340439605786 306.67789026674586ZM354.2246015996699 287.94209067455245L354.2246015996699 287.94209067455245Q349.58259752160404 287.94209067455245 346.28285968297894 284.83809999584577Q342.95515796436547 281.7061454371508 342.95515796436547 276.4768998793296L342.95515796436547 276.4768998793296Q342.95515796436547 271.24765432150843 346.28285968297894 268.1156997628134Q349.58259752160404 265.01170908410677 354.2246015996699 265.01170908410677L354.2246015996699 265.01170908410677Q358.8666056777357 265.01170908410677 362.1663435163608 268.1156997628134Q365.49404523497424 271.24765432150843 365.49404523497424 276.4768998793296L365.49404523497424 276.4768998793296Q365.49404523497424 281.7061454371508 362.1663435163608 284.83809999584577Q358.8666056777357 287.94209067455245 354.2246015996699 287.94209067455245ZM426.51123136955044 415.0099613416075L426.51123136955044 415.0099613416075Q415.63328205408294 415.0099613416075 408.3906371371007 410.75945158337856Q401.14799222011845 406.5369057051379 396.61784366200595 399.1824052682023Q392.08769510389357 391.855868711255 390.15818738469756 381.7888719154496Q388.25664354548985 371.7218751196442 388.25664354548985 359.8372261245961L388.25664354548985 359.8372261245961Q388.25664354548985 333.66303445550204 397.820290501505 318.87014194166574Q407.3839374575201 304.0492855478411 426.70697852946887 304.0492855478411L426.70697852946887 304.0492855478411Q432.5514294470337 304.0492855478411 437.16546964511116 305.4754434272469Q441.80747372317694 306.8736374266643 445.83427244149914 309.0827839457438L445.83427244149914 309.0827839457438L441.4159794033401 323.4002904997782Q435.1520702859501 319.37349178145604 427.517931049131 319.37349178145604L427.517931049131 319.37349178145604Q416.6399817336635 319.37349178145604 411.49462781580735 329.2167775373547Q406.3772377779396 339.08802717324164 406.3772377779396 359.8372261245961L406.3772377779396 359.8372261245961Q406.3772377779396 368.4780650409958 407.3839374575201 375.83256547793144Q408.3906371371007 383.18706591486705 410.90738633605207 388.41631147268816Q413.4241355350034 393.64555703050934 417.5348258932906 396.665656069251Q421.6734801315662 399.6857551079926 428.10517252888627 399.6857551079926L428.10517252888627 399.6857551079926Q432.5514294470337 399.6857551079926 436.0748783255656 398.595163788447Q439.5983272040975 397.47660858891305 442.81417340275755 395.6589563896704L442.81417340275755 395.6589563896704L446.64522496116126 409.1655104240427Q443.4293787625012 411.3746569431222 438.0882776847267 413.1923091423648Q432.7471766069521 415.0099613416075 426.51123136955044 415.0099613416075Z " fill="#00214d" transform="matrix(0.8271512394344354,0,0,0.8271512394344354,0,18.760325755417767)"/><path d="M638.5150502209206 392.22607875760696L622.327627286272 392.22607875760696Q618.0662216142622 376.86726248140474 613.5976642776407 362.81054238276107Q609.1291069410192 348.7538222841174 604.956480553843 336.29512931247746Q600.8134472616111 323.8364363408375 596.9663449188245 313.59722549003607Q593.1488356709823 303.35801463923457 589.9527814169749 295.69340304860566L589.9527814169749 295.69340304860566Q589.094581663584 307.8561650708005 588.5619059545827 322.4455608784454Q588.0292302455816 337.03495668609025 587.4965545365803 352.36417986734796Q586.963878827579 367.7229961435502 586.6383547831895 383.17059170458595Q586.3128307387998 398.6181872656217 586.1056790741882 412.6749073642654L586.1056790741882 412.6749073642654L567.7875533035347 412.6749073642654Q568.4090082973694 393.49858184022094 569.0600563861487 373.996732271787Q569.7111044749281 354.4948827033529 570.6580835131524 335.6440812236982Q571.6050625513769 316.79327974404345 572.7887863491574 298.8894573026131Q573.9725101469379 280.98563486118275 575.4521648941636 265.00536359114574L575.4521648941636 265.00536359114574L594.4213387535963 265.00536359114574Q598.2388480014386 274.1792230239448 603.1513017622276 286.8450676601963Q608.0637555230169 299.5405053913924 613.0649885686395 313.39007382542445Q618.0662216142622 327.2396422594565 622.7419306154952 341.08921069348855Q627.4472327116728 354.9387791275206 630.8504386302918 366.45049306093614L630.8504386302918 366.45049306093614Q634.2536445489108 354.9387791275206 638.7222018855323 341.08921069348855Q643.2203523170982 327.2396422594565 648.1032129829429 313.39007382542445Q653.015666743732 299.5405053913924 657.809748124743 286.8450676601963Q662.6038295057542 274.1792230239448 666.4213387535963 265.00536359114574L666.4213387535963 265.00536359114574L685.3905126130292 265.00536359114574Q686.8997604551993 280.98563486118275 688.0538911580353 298.8894573026131Q689.2376149558158 316.79327974404345 690.1845939940403 335.6440812236982Q691.1611661272091 354.4948827033529 691.7826211210439 373.996732271787Q692.4336692098232 393.49858184022094 693.0551242036579 412.6749073642654L693.0551242036579 412.6749073642654L674.7369984330045 412.6749073642654Q674.3226951037813 398.6181872656217 673.9971710593917 383.05221932480794Q673.671647015002 367.5158444789386 673.1389713060008 351.8315041583468Q672.6062955969995 336.1767569326994 671.9848406031648 321.3802094604429Q671.3337925143856 306.55406889324195 670.4755927609946 294.21374830138006L670.4755927609946 294.21374830138006Q668.5520415896012 299.5405053913924 665.6815113799835 307.5306410264109Q662.8109811703657 315.5207766614294 659.7332992961365 324.90178775884Q656.6260243269626 334.25320576130605 653.3411907881216 344.1668925677179Q650.0267641543362 354.08057937412974 647.1562339447185 363.25443880692876Q644.2857037351007 372.39870514478326 642.0366285193177 379.97453745057857Q639.7875533035347 387.52077666142935 638.5150502209206 392.22607875760696L638.5150502209206 392.22607875760696ZM793.6420539200575 300.81300847400644L793.6420539200575 409.478853110258Q790.8603029952733 410.5442045282605 786.924421367653 411.4911835664849Q782.9885397400328 412.4677556996538 778.6087616882448 413.2075830732666Q774.2585767314015 413.9474104468794 769.8787986796136 414.48008615588066Q765.4990206278258 415.0127618648819 761.8886630445951 415.0127618648819L761.8886630445951 415.0127618648819Q753.1587000359638 415.0127618648819 745.9083917745581 413.000431408655Q738.6580835131524 410.9585078574836 733.5384780877516 405.8684955270274Q728.4484657572955 400.74889010162667 725.6667148325113 391.9005547132173Q722.8849639077271 383.05221932480794 722.8849639077271 369.6465473149435L722.8849639077271 369.6465473149435L722.8849639077271 300.81300847400644L741.232682773325 300.81300847400644L741.232682773325 368.99549922616427Q741.232682773325 385.39007382542445 746.2339158189477 392.1077063778289Q751.2351488645704 398.82533893023333 761.474359715372 398.82533893023333L761.474359715372 398.82533893023333Q764.8775656339909 398.82533893023333 768.2807715526098 398.49981488584365Q771.6839774712289 398.174290841454 775.323928149404 397.1089394234516L775.323928149404 397.1089394234516L775.323928149404 300.81300847400644L793.6420539200575 300.81300847400644ZM843.7135705661733 267.5799628513184L843.7135705661733 300.81300847400644L871.8270107634607 300.81300847400644L871.8270107634607 316.58612807943183L843.7135705661733 316.58612807943183L843.7135705661733 378.1693586589633Q843.7135705661733 389.6514794974343 847.8566038584052 394.2384092138338Q852.0292302455815 398.82533893023333 859.0427937474311 398.82533893023333L859.0427937474311 398.82533893023333Q862.6827444256062 398.82533893023333 865.9675779644472 397.75998751223085Q869.2820045982326 396.6946360942284 871.619859098849 395.2149813470028L871.619859098849 395.2149813470028L875.2302166820797 409.8931564394811Q866.5002536734484 415.0127618648819 856.7049392468145 415.0127618648819L856.7049392468145 415.0127618648819Q840.9318196413892 415.0127618648819 833.1488356709823 406.1644264764725Q825.3954447955199 397.3456841830077 825.3954447955199 376.86726248140474L825.3954447955199 376.86726248140474L825.3954447955199 270.77601710532576L843.7135705661733 267.5799628513184ZM964.3054324650636 300.81300847400644L964.3054324650636 409.478853110258Q961.5236815402794 410.5442045282605 957.5877999126592 411.4911835664849Q953.6519182850391 412.4677556996538 949.2721402332511 413.2075830732666Q944.9219552764076 413.9474104468794 940.5421772246198 414.48008615588066Q936.1919922677764 415.0127618648819 932.5520415896012 415.0127618648819L932.5520415896012 415.0127618648819Q923.8220785809699 415.0127618648819 916.5717703195642 413.000431408655Q909.3214620581587 410.9585078574836 904.2314497277023 405.8684955270274Q899.1118443023017 400.74889010162667 896.3300933775174 391.9005547132173Q893.5779355476777 383.05221932480794 893.5779355476777 369.6465473149435L893.5779355476777 369.6465473149435L893.5779355476777 300.81300847400644L911.8960613183312 300.81300847400644L911.8960613183312 368.99549922616427Q911.8960613183312 385.39007382542445 916.897294363954 392.1077063778289Q921.8985274095766 398.82533893023333 932.137738260378 398.82533893023333L932.137738260378 398.82533893023333Q935.540944178997 398.82533893023333 938.944150097616 398.49981488584365Q942.347356016235 398.174290841454 945.9873066944101 397.1089394234516L945.9873066944101 397.1089394234516L945.9873066944101 300.81300847400644L964.3054324650636 300.81300847400644ZM1002.8652351777641 318.7168309154368L999.0477259299219 303.15086297462295Q1004.5816346845457 300.81300847400644 1010.766591527949 299.42213301161433Q1016.9219552764077 298.03125754922223 1024.1722635378133 298.03125754922223L1024.1722635378133 298.03125754922223Q1039.0871833898477 298.03125754922223 1048.4681944872586 307.32348936179926Q1057.849205584669 316.58612807943183 1057.849205584669 336.1767569326994L1057.849205584669 336.1767569326994L1057.849205584669 410.33705286364886Q1050.1845939940401 412.4677556996538 1042.1944583590216 413.7402587822678Q1034.2043227240033 415.0127618648819 1026.51011803843 415.0127618648819L1026.51011803843 415.0127618648819Q1018.845506447801 415.0127618648819 1012.1278738953965 413.08921069348855Q1005.4398344379367 411.1952526170397 1000.4090082973694 406.93384694502987Q995.4077752517468 402.67244127302 992.4188726623511 396.1619603852272Q989.4595631678997 389.6514794974343 989.4595631678997 380.3000614949682L989.4595631678997 380.3000614949682Q989.4595631678997 371.54050539139234 992.1229417129059 365.05961759854404Q994.7863202579119 358.5491367107512 999.4620292591451 354.1989517539078Q1004.137738260378 349.8191737021199 1010.5298467683929 347.57009848633686Q1016.9219552764077 345.3506163654984 1024.379415202425 345.3506163654984L1024.379415202425 345.3506163654984Q1031.422571799219 345.3506163654984 1039.9453831432388 347.0374227773357L1039.9453831432388 347.0374227773357L1039.9453831432388 336.8278050214787Q1039.9453831432388 324.4578913346723 1035.1513017622276 319.57503066882765Q1030.3572203812166 314.6625769080385 1021.4201057079736 314.6625769080385L1021.4201057079736 314.6625769080385Q1016.5076519471845 314.6625769080385 1012.1278738953965 315.6095559462629Q1007.7776889385532 316.58612807943183 1002.8652351777641 318.7168309154368L1002.8652351777641 318.7168309154368ZM1007.7776889385532 380.0633167354121L1007.7776889385532 380.0633167354121Q1007.7776889385532 389.8882242569904 1012.897294363954 394.5639332582234Q1017.9873066944101 399.2396422594565 1027.3683177918208 399.2396422594565L1027.3683177918208 399.2396422594565Q1033.1389713060007 399.2396422594565 1039.9453831432388 397.75998751223085L1039.9453831432388 397.75998751223085L1039.9453831432388 362.1890873889263Q1033.553274635224 360.47268788214456 1027.3683177918208 360.47268788214456L1027.3683177918208 360.47268788214456Q1023.3140637844225 360.47268788214456 1019.703706201192 361.41966692036897Q1016.0933486179613 362.3962390535379 1013.4299700729551 364.61572117437635Q1010.766591527949 366.8647963901593 1009.2573436857788 370.59352635316793Q1007.7776889385532 374.3222563161766 1007.7776889385532 380.0633167354121Z " fill="#10bcf9" transform="matrix(0.8271512394344354,0,0,0.8271512394344354,0,18.760325755417767)"/></g></svg>